<?xml version="1.0" encoding="iso-8859-1"?>
<!-- Generator: Adobe Illustrator 19.0.0, SVG Export Plug-In . SVG Version: 6.00 Build 0)  -->
<svg fill="#323232" version="1.1" id="Capa_1" xmlns="http://www.w3.org/2000/svg" xmlns:xlink="http://www.w3.org/1999/xlink" x="0px" y="0px"
	 viewBox="0 0 511.999 511.999" style="enable-background:new 0 0 511.999 511.999;" xml:space="preserve">
<g>
	<g>
		<path d="M475.883,6.954c-0.01-0.11-0.032-0.217-0.047-0.326c-0.02-0.14-0.037-0.281-0.064-0.421
			c-0.025-0.127-0.06-0.25-0.092-0.375c-0.03-0.119-0.057-0.239-0.092-0.357c-0.037-0.122-0.083-0.241-0.127-0.361
			c-0.042-0.117-0.08-0.236-0.129-0.352c-0.046-0.112-0.102-0.22-0.153-0.33c-0.056-0.118-0.108-0.238-0.17-0.353
			c-0.057-0.106-0.121-0.208-0.183-0.311c-0.067-0.112-0.131-0.226-0.205-0.336c-0.076-0.114-0.162-0.222-0.244-0.331
			c-0.069-0.092-0.133-0.186-0.206-0.276c-0.152-0.185-0.314-0.363-0.483-0.534c-0.01-0.01-0.018-0.022-0.029-0.032
			c-0.011-0.011-0.025-0.022-0.036-0.033c-0.169-0.167-0.345-0.327-0.529-0.478c-0.088-0.073-0.182-0.136-0.274-0.205
			c-0.11-0.082-0.218-0.168-0.332-0.245c-0.107-0.071-0.218-0.134-0.327-0.199c-0.107-0.064-0.212-0.131-0.322-0.19
			c-0.109-0.059-0.221-0.107-0.332-0.159c-0.117-0.056-0.234-0.114-0.354-0.164c-0.106-0.043-0.214-0.079-0.321-0.117
			c-0.131-0.047-0.259-0.097-0.392-0.137c-0.104-0.032-0.21-0.055-0.316-0.081c-0.139-0.036-0.276-0.074-0.418-0.102
			c-0.115-0.023-0.23-0.035-0.346-0.052c-0.134-0.021-0.265-0.044-0.401-0.058c-0.19-0.019-0.382-0.025-0.573-0.029
			c-0.06-0.002-0.12-0.01-0.182-0.01H50.977c-0.062,0-0.121,0.008-0.183,0.009c-0.191,0.004-0.383,0.01-0.573,0.029
			c-0.136,0.013-0.268,0.038-0.401,0.058c-0.115,0.017-0.23,0.03-0.346,0.052c-0.142,0.028-0.279,0.067-0.418,0.102
			c-0.105,0.027-0.211,0.049-0.315,0.081c-0.134,0.04-0.262,0.09-0.392,0.137c-0.107,0.039-0.215,0.074-0.321,0.117
			c-0.12,0.049-0.237,0.108-0.354,0.164c-0.111,0.052-0.223,0.102-0.332,0.159c-0.11,0.059-0.216,0.127-0.323,0.19
			C46.91,1.164,46.8,1.225,46.693,1.296c-0.115,0.077-0.224,0.163-0.334,0.246c-0.091,0.071-0.184,0.134-0.273,0.207
			c-0.184,0.151-0.36,0.311-0.529,0.478c-0.011,0.011-0.025,0.022-0.036,0.033c-0.01,0.01-0.019,0.022-0.029,0.032
			c-0.169,0.171-0.33,0.348-0.483,0.534c-0.073,0.089-0.137,0.183-0.206,0.276c-0.082,0.11-0.168,0.217-0.244,0.331
			c-0.073,0.11-0.137,0.223-0.205,0.336c-0.062,0.103-0.127,0.205-0.183,0.311c-0.062,0.115-0.114,0.234-0.17,0.352
			c-0.052,0.11-0.107,0.219-0.154,0.332c-0.047,0.115-0.085,0.233-0.128,0.349c-0.043,0.12-0.09,0.24-0.128,0.363
			c-0.036,0.118-0.062,0.238-0.092,0.357c-0.031,0.125-0.066,0.248-0.092,0.375c-0.028,0.139-0.044,0.28-0.064,0.421
			c-0.015,0.109-0.036,0.216-0.047,0.326c-0.025,0.254-0.038,0.509-0.038,0.766v137.554c0,4.263,3.455,7.717,7.717,7.717
			s7.717-3.454,7.717-7.717V26.346l18.803,18.803v200.248L58.694,264.2v-88.79c0-4.263-3.455-7.718-7.717-7.718
			c-4.262,0-7.717,3.454-7.717,7.717v107.417c0,0.255,0.013,0.51,0.038,0.765c0.01,0.11,0.032,0.217,0.047,0.326
			c0.02,0.14,0.037,0.281,0.064,0.421c0.025,0.127,0.06,0.25,0.092,0.375c0.03,0.119,0.057,0.239,0.092,0.357
			c0.037,0.123,0.083,0.242,0.127,0.363c0.042,0.117,0.08,0.235,0.128,0.35c0.047,0.113,0.102,0.221,0.153,0.331
			c0.056,0.118,0.108,0.237,0.17,0.353c0.057,0.106,0.121,0.208,0.183,0.311c0.067,0.112,0.131,0.226,0.205,0.336
			c0.076,0.114,0.161,0.222,0.244,0.331c0.069,0.092,0.133,0.186,0.206,0.276c0.152,0.185,0.314,0.363,0.483,0.534
			c0.01,0.01,0.019,0.022,0.029,0.032c0.011,0.011,0.025,0.022,0.036,0.033c0.169,0.167,0.345,0.327,0.529,0.478
			c0.089,0.073,0.183,0.137,0.275,0.205c0.11,0.082,0.218,0.168,0.332,0.244c0.108,0.072,0.221,0.135,0.332,0.202
			c0.105,0.063,0.208,0.129,0.316,0.187c0.113,0.061,0.229,0.112,0.346,0.167c0.112,0.053,0.223,0.109,0.339,0.157
			c0.113,0.046,0.228,0.084,0.343,0.126c0.123,0.044,0.245,0.092,0.37,0.13c0.114,0.034,0.229,0.06,0.345,0.089
			c0.129,0.033,0.256,0.069,0.388,0.095c0.133,0.027,0.268,0.042,0.401,0.062c0.115,0.016,0.227,0.038,0.344,0.049
			c0.253,0.025,0.507,0.038,0.761,0.038h417.23c0.254,0,0.508-0.013,0.761-0.038c0.116-0.011,0.228-0.033,0.344-0.049
			c0.135-0.02,0.27-0.035,0.402-0.062c0.132-0.026,0.258-0.062,0.387-0.095c0.115-0.029,0.23-0.055,0.345-0.089
			c0.125-0.038,0.247-0.085,0.37-0.13c0.114-0.041,0.229-0.079,0.343-0.126c0.115-0.048,0.226-0.104,0.339-0.157
			c0.115-0.055,0.232-0.106,0.346-0.167c0.108-0.058,0.21-0.123,0.315-0.186c0.111-0.067,0.224-0.13,0.333-0.203
			c0.114-0.076,0.221-0.16,0.33-0.243c0.092-0.069,0.186-0.133,0.276-0.206c0.184-0.151,0.36-0.311,0.529-0.478
			c0.011-0.011,0.025-0.022,0.036-0.033c0.01-0.01,0.018-0.022,0.029-0.032c0.169-0.171,0.33-0.348,0.483-0.534
			c0.073-0.09,0.137-0.183,0.206-0.276c0.082-0.11,0.168-0.217,0.244-0.331c0.073-0.11,0.137-0.223,0.205-0.336
			c0.062-0.103,0.127-0.205,0.183-0.311c0.062-0.116,0.115-0.236,0.171-0.354c0.051-0.109,0.106-0.217,0.153-0.329
			c0.048-0.116,0.086-0.235,0.129-0.353c0.043-0.12,0.088-0.238,0.127-0.361c0.036-0.118,0.062-0.238,0.092-0.357
			c0.031-0.125,0.066-0.248,0.092-0.375c0.028-0.139,0.044-0.28,0.064-0.421c0.015-0.109,0.036-0.216,0.047-0.326
			c0.025-0.254,0.038-0.509,0.038-0.765V7.72C475.921,7.465,475.907,7.209,475.883,6.954z M69.607,15.433h379.969l-18.802,18.802
			H88.41L69.607,15.433z M69.607,275.111l18.803-18.802h342.365l18.803,18.802H69.607z M271.556,195.148l-9.489-12.695
			l61.956-60.177c1.003-0.974,2.574-0.975,3.521-0.063l98.711,97.419v21.243h-325.32l92.358-119.457
			c0.685-0.79,1.546-0.915,1.998-0.882c0.468,0.01,1.35,0.158,2.003,1.032l61.9,82.819c2.551,3.413,7.386,4.112,10.801,1.562
			C273.409,203.398,274.107,198.562,271.556,195.148z M460.491,264.198l-18.803-18.803v-138.95c0-4.263-3.455-7.717-7.717-7.717
			s-7.717,3.454-7.717,7.717v91.505l-87.928-86.778c-7.032-6.795-18.038-6.781-25.056,0.033l-60.52,58.782l-43.095-57.658
			c-3.337-4.464-8.446-7.096-14.018-7.222c-5.556-0.135-10.794,2.276-14.328,6.585c-0.046,0.057-0.093,0.114-0.138,0.172
			L92.93,225.995V49.668h333.325v25.911c0,4.263,3.455,7.717,7.717,7.717s7.717-3.454,7.717-7.717V45.148l18.803-18.803V264.198z"/>
	</g>
</g>
<g>
	<g>
		<path d="M463.128,382.709h-6.257c6.982-7.958,11.228-18.373,11.228-29.767c0-24.924-20.276-45.2-45.2-45.2
			c-24.924,0-45.2,20.276-45.2,45.2c0,11.394,4.246,21.808,11.228,29.767h-6.257c-11.059,0-20.057,8.996-20.057,20.056
			s8.998,20.056,20.057,20.056h2.53v9.204H126.798v-4.915h2.53c11.059,0,20.057-8.996,20.057-20.056s-8.998-20.056-20.057-20.056
			h-6.257c6.982-7.958,11.228-18.373,11.228-29.766c0-24.924-20.276-45.2-45.2-45.2c-24.924,0-45.2,20.276-45.2,45.2
			c0,11.394,4.246,21.808,11.228,29.766h-6.257c-11.059,0-20.056,8.997-20.056,20.056s8.998,20.056,20.056,20.056h2.531v15.116
			c0,4.263,3.455,7.717,7.717,7.717s7.717-3.454,7.717-7.717V427.11h44.529v12.632v27.004v27.248c0,1.419-1.154,2.572-2.572,2.572
			H69.408c-1.418,0-2.572-1.153-2.572-2.572v-15.756c0-4.263-3.455-7.717-7.717-7.717s-7.717,3.454-7.717,7.717v15.756
			c0,9.928,8.078,18.005,18.005,18.005h39.384c9.928,0,18.005-8.078,18.005-18.005v-19.531h258.404v15.242
			c0,9.928,8.078,18.005,18.005,18.005h39.384c9.928,0,18.005-8.078,18.005-18.005V422.82h2.531
			c11.059,0,20.056-8.997,20.056-20.056S474.186,382.709,463.128,382.709z M89.099,327.465c16.414,0,29.766,13.354,29.766,29.766
			c0,16.413-13.353,29.767-29.766,29.767c-16.414,0-29.767-13.354-29.767-29.767C59.333,340.819,72.686,327.465,89.099,327.465z
			 M119.081,411.677H59.119H48.871c-2.55,0-4.623-2.074-4.623-4.623c0-2.549,2.074-4.623,4.623-4.623h80.456
			c2.55,0,4.624,2.074,4.624,4.623c0,2.549-2.074,4.623-4.624,4.623H119.081z M385.202,459.03H126.798v-11.571h258.404V459.03z
			 M422.9,323.176c16.414,0,29.767,13.354,29.767,29.766c0,16.413-13.353,29.767-29.767,29.767
			c-16.414,0-29.766-13.354-29.766-29.767C393.133,336.53,406.486,323.176,422.9,323.176z M445.163,489.705
			c0,1.419-1.154,2.572-2.572,2.572h-39.384c-1.418,0-2.572-1.153-2.572-2.572v-22.958v-27.004v-16.921h44.529V489.705z
			 M463.128,407.388H452.88h-59.962h-10.247c-2.55,0-4.624-2.074-4.624-4.623c0-2.549,2.074-4.623,4.624-4.623h80.456
			c2.55,0,4.623,2.074,4.623,4.623C467.751,405.313,465.676,407.388,463.128,407.388z"/>
	</g>
</g>
<g>
	<g>
		<path d="M253.455,57.595c-15.589,0-28.272,12.683-28.272,28.273c0,15.59,12.683,28.273,28.272,28.273
			c15.59,0,28.273-12.683,28.273-28.273C281.727,70.278,269.044,57.595,253.455,57.595z M253.455,98.708
			c-7.079,0-12.838-5.76-12.838-12.839s5.76-12.839,12.838-12.839c7.08,0,12.839,5.76,12.839,12.839S260.534,98.708,253.455,98.708z
			"/>
	</g>
</g>
<g>
</g>
<g>
</g>
<g>
</g>
<g>
</g>
<g>
</g>
<g>
</g>
<g>
</g>
<g>
</g>
<g>
</g>
<g>
</g>
<g>
</g>
<g>
</g>
<g>
</g>
<g>
</g>
<g>
</g>
</svg>
