<?xml version="1.0" encoding="iso-8859-1"?>
<!-- Generator: Adobe Illustrator 16.0.0, SVG Export Plug-In . SVG Version: 6.00 Build 0)  -->
<!DOCTYPE svg PUBLIC "-//W3C//DTD SVG 1.1//EN" "http://www.w3.org/Graphics/SVG/1.1/DTD/svg11.dtd">
<svg fill="#d9d8da" version="1.1" id="Capa_1" xmlns="http://www.w3.org/2000/svg" xmlns:xlink="http://www.w3.org/1999/xlink" x="0px" y="0px"
	 width="31.611px" height="31.611px" viewBox="0 0 31.611 31.611" style="enable-background:new 0 0 31.611 31.611;"
	 xml:space="preserve">
<g>
	<g>
		<path d="M27.837,10.39l-2.514-3.066c0.252-0.206,0.418-0.516,0.418-0.866c0-0.62-0.504-1.124-1.125-1.124
			c-0.619,0-1.123,0.504-1.123,1.124c0,0.343,0.156,0.646,0.398,0.851l-2.83,3.081H27.837z M24.618,6.125
			c0.182,0,0.33,0.148,0.33,0.331s-0.148,0.329-0.33,0.329c-0.183,0-0.33-0.146-0.33-0.329S24.435,6.125,24.618,6.125z"/>
		<path d="M25.553,16.132h-0.375c0.163-0.109,0.317-0.247,0.427-0.422c0.148-0.239,0.275-0.627,0.033-1.121l-0.161-0.331
			l0.017,0.367c0.015,0.275-0.112,0.43-0.215,0.506c0.037-0.283,0.07-0.886-0.234-1.334c-0.191-0.278-0.482-0.449-0.866-0.509
			l-0.231-0.034l0.168,0.164c0.198,0.195,0.301,0.403,0.301,0.617c0,0.122-0.032,0.232-0.074,0.321
			c-0.01-0.155-0.064-0.331-0.244-0.427l-0.12-0.065l0.009,0.137c0.02,0.312-0.113,0.502-0.255,0.702
			c-0.143,0.204-0.288,0.415-0.262,0.742c0.024,0.308,0.147,0.53,0.351,0.687h-0.47v0.595h2.206v-0.595H25.553z M24.71,16.132
			c0.226-0.278,0.289-1.165-0.247-1.322c0.161,0.279-0.085,0.542-0.3,0.668c-0.213,0.127-0.356,0.246-0.27,0.521
			c0.003,0.011,0.008,0.019,0.012,0.027c-0.172-0.13-0.267-0.323-0.289-0.592c-0.023-0.272,0.103-0.452,0.234-0.643
			c0.118-0.169,0.25-0.356,0.278-0.622c0.106,0.176,0.032,0.453,0.03,0.456l-0.076,0.274l0.203-0.199
			c0.011-0.012,0.277-0.277,0.277-0.664c0-0.188-0.064-0.371-0.189-0.545c0.231,0.073,0.412,0.205,0.541,0.393
			c0.367,0.537,0.187,1.366,0.185,1.375l-0.028,0.129l0.127-0.041c0.004-0.002,0.287-0.098,0.4-0.406
			c0.061,0.296-0.025,0.531-0.125,0.69c-0.146,0.235-0.382,0.407-0.605,0.502H24.71z"/>
		<path d="M25.214,13.715c0.037,0.057,0.057,0.106,0.07,0.171c0.012,0.065,0.047,0.207,0.047,0.207l0.06-0.198
			c0.049-0.18-0.013-0.331-0.188-0.385l-0.275-0.055c0,0,0.104,0.086,0.161,0.129C25.116,13.605,25.176,13.658,25.214,13.715z"/>
		<path d="M26.546,17.693l1.306-6.941h-6.801l1.231,6.941h-6.504V16.25h-1.798v-0.878h-2.355v0.878H4.229
			C3.921,12.668,3.449,4.14,5.696,1.998C6.927,0.823,8.46,0.41,9.91,0.87c1.223,0.386,2.187,1.324,2.557,2.448l-1.033,0.101
			l0.155,1.598L9.992,5.17l-0.897,4.948l2.967-0.287c0.197,0.532,0.731,0.891,1.323,0.832c0.593-0.057,1.047-0.51,1.139-1.071
			l3.181-0.309l-1.833-4.683l-1.385,0.135l-0.155-1.599l-1.174,0.115c-0.402-1.396-1.559-2.569-3.042-3.036
			C8.424-0.317,6.64,0.148,5.223,1.5C2.755,3.854,3.216,12.542,3.538,16.25h-1.29v1.443H1.222v1.644h1.29v12.274h2.389V19.337
			h21.088v12.274h2.389V19.337h2.012v-1.644H26.546z M21.997,11.545h4.898L25.889,16.9h-2.94L21.997,11.545z"/>
	</g>
</g>
<g>
</g>
<g>
</g>
<g>
</g>
<g>
</g>
<g>
</g>
<g>
</g>
<g>
</g>
<g>
</g>
<g>
</g>
<g>
</g>
<g>
</g>
<g>
</g>
<g>
</g>
<g>
</g>
<g>
</g>
</svg>
