<?xml version="1.0" encoding="iso-8859-1"?>
<!-- Generator: Adobe Illustrator 19.0.0, SVG Export Plug-In . SVG Version: 6.00 Build 0)  -->
<svg version="1.1" id="Capa_1" xmlns="http://www.w3.org/2000/svg" xmlns:xlink="http://www.w3.org/1999/xlink" x="0px" y="0px"
	 viewBox="0 0 512 512" style="enable-background:new 0 0 512 512;" xml:space="preserve">
<path style="fill:#E6EAEE;" d="M459.361,67.662v439.175c0,2.85-2.311,5.161-5.161,5.161H57.797c-2.851,0-5.161-2.311-5.161-5.161
	V5.163c0-2.851,2.311-5.161,5.161-5.161h335.757L459.361,67.662z"/>
<path style="fill:#CDD3D9;" d="M459.364,67.665v439.174c0,2.85-2.311,5.161-5.161,5.161h-27.747V69.76
	c0-1.344-0.524-2.635-1.461-3.598L360.649,0h32.908L459.364,67.665z"/>
<path style="fill:#5C6D7D;" d="M459.361,67.662l-65.807-67.66v62.499c0,2.851,2.311,5.161,5.161,5.161H459.361z"/>
<path style="fill:#FF6E5E;" d="M291.991,94.218H105.128c-2.761,0-5-2.239-5-5V46.106c0-2.761,2.239-5,5-5h186.863
	c2.761,0,5,2.239,5,5v43.112C296.991,91.979,294.752,94.218,291.991,94.218z"/>
<path style="fill:#F4584D;" d="M296.99,46.266v42.787c0,2.859-2.312,5.161-5.161,5.161H272.05c2.849,0,5.161-2.302,5.161-5.161
	V46.266c0-2.849-2.312-5.161-5.161-5.161h19.778C294.677,41.105,296.99,43.417,296.99,46.266z"/>
<g>
	<path style="fill:#FF6E5E;" d="M125.801,207.754c-1.808,0-3.565-0.654-4.938-1.855l-16.516-14.451
		c-3.118-2.728-3.434-7.466-0.706-10.583c2.729-3.117,7.467-3.434,10.583-0.706l10.469,9.16l34.364-45.216
		c2.507-3.298,7.212-3.938,10.509-1.434c3.298,2.507,3.939,7.212,1.433,10.51l-39.226,51.613c-1.258,1.655-3.146,2.714-5.214,2.924
		C126.305,207.741,126.053,207.754,125.801,207.754z"/>
	<path style="fill:#FF6E5E;" d="M402.712,156.141H207.717c-4.142,0-7.5-3.357-7.5-7.5s3.358-7.5,7.5-7.5h194.995
		c4.142,0,7.5,3.357,7.5,7.5S406.854,156.141,402.712,156.141z"/>
	<path style="fill:#FF6E5E;" d="M334.317,181.947h-126.6c-4.142,0-7.5-3.357-7.5-7.5s3.358-7.5,7.5-7.5h126.601
		c4.142,0,7.5,3.357,7.5,7.5S338.459,181.947,334.317,181.947z"/>
	<path style="fill:#FF6E5E;" d="M363.221,207.754H207.717c-4.142,0-7.5-3.357-7.5-7.5s3.358-7.5,7.5-7.5h155.504
		c4.142,0,7.5,3.357,7.5,7.5S367.363,207.754,363.221,207.754z"/>
	<path style="fill:#FF6E5E;" d="M125.801,313.049c-1.808,0-3.565-0.654-4.938-1.855l-16.516-14.452
		c-3.117-2.728-3.433-7.466-0.705-10.583c2.728-3.119,7.465-3.435,10.583-0.706l10.468,9.16l34.364-45.215
		c2.507-3.299,7.212-3.938,10.509-1.434c3.298,2.507,3.939,7.212,1.433,10.51l-39.226,51.613c-1.258,1.655-3.146,2.714-5.215,2.924
		C126.305,313.036,126.053,313.049,125.801,313.049z"/>
	<path style="fill:#FF6E5E;" d="M402.712,261.436H207.717c-4.142,0-7.5-3.357-7.5-7.5s3.358-7.5,7.5-7.5h194.995
		c4.142,0,7.5,3.357,7.5,7.5S406.854,261.436,402.712,261.436z"/>
	<path style="fill:#FF6E5E;" d="M334.317,287.242h-126.6c-4.142,0-7.5-3.357-7.5-7.5s3.358-7.5,7.5-7.5h126.601
		c4.142,0,7.5,3.357,7.5,7.5S338.459,287.242,334.317,287.242z"/>
	<path style="fill:#FF6E5E;" d="M363.221,313.049H207.717c-4.142,0-7.5-3.357-7.5-7.5s3.358-7.5,7.5-7.5h155.504
		c4.142,0,7.5,3.357,7.5,7.5S367.363,313.049,363.221,313.049z"/>
	<path style="fill:#FF6E5E;" d="M402.712,366.73H207.717c-4.142,0-7.5-3.357-7.5-7.5s3.358-7.5,7.5-7.5h194.995
		c4.142,0,7.5,3.357,7.5,7.5S406.854,366.73,402.712,366.73z"/>
	<path style="fill:#FF6E5E;" d="M334.317,392.536h-126.6c-4.142,0-7.5-3.357-7.5-7.5s3.358-7.5,7.5-7.5h126.601
		c4.142,0,7.5,3.357,7.5,7.5S338.459,392.536,334.317,392.536z"/>
	<path style="fill:#FF6E5E;" d="M363.221,418.343H207.717c-4.142,0-7.5-3.357-7.5-7.5s3.358-7.5,7.5-7.5h155.504
		c4.142,0,7.5,3.357,7.5,7.5S367.363,418.343,363.221,418.343z"/>
</g>
<path style="fill:#FFD071;" d="M155.898,410.843h-41.613c-2.761,0-5-2.239-5-5V364.23c0-2.761,2.239-5,5-5h41.613
	c2.761,0,5,2.239,5,5v41.613C160.898,408.604,158.66,410.843,155.898,410.843z"/>
<path style="fill:#F7B657;" d="M160.897,364.387v41.29c0,2.859-2.312,5.161-5.161,5.161h-21.677c2.849,0,5.161-2.302,5.161-5.161
	v-41.29c0-2.849-2.312-5.161-5.161-5.161h21.677C158.585,359.226,160.897,361.538,160.897,364.387z"/>
<g>
</g>
<g>
</g>
<g>
</g>
<g>
</g>
<g>
</g>
<g>
</g>
<g>
</g>
<g>
</g>
<g>
</g>
<g>
</g>
<g>
</g>
<g>
</g>
<g>
</g>
<g>
</g>
<g>
</g>
</svg>
