<?xml version="1.0" encoding="iso-8859-1"?>
<!-- Generator: Adobe Illustrator 19.0.0, SVG Export Plug-In . SVG Version: 6.00 Build 0)  -->
<svg version="1.1" id="Capa_1" xmlns="http://www.w3.org/2000/svg" xmlns:xlink="http://www.w3.org/1999/xlink" x="0px" y="0px"
	 viewBox="0 0 508.849 508.849" style="enable-background:new 0 0 508.849 508.849;" xml:space="preserve">
<path style="fill:#E1E6E8;" d="M254.425,0L254.425,0C113.428,0,0,113.428,0,254.425s114.215,254.425,254.425,254.425l0,0
	c140.997,0,254.425-114.215,254.425-254.425C508.849,113.428,395.422,0,254.425,0z"/>
<path style="fill:#F05F50;" d="M254.425,31.508L254.425,31.508c-122.88,0-222.917,100.037-222.917,222.917
	s100.037,222.917,222.917,222.917l0,0c122.88,0,222.917-100.037,222.917-222.917S377.305,31.508,254.425,31.508z"/>
<path style="fill:#183651;" d="M254.425,485.218c-127.606,0-230.794-103.975-230.794-230.794
	c0-127.606,103.975-230.794,230.794-230.794c127.606,0,230.794,103.975,230.794,230.794
	C485.218,382.031,382.031,485.218,254.425,485.218z M254.425,39.385c-118.942,0-215.04,96.098-215.04,215.04
	s96.886,215.04,215.04,215.04s215.04-96.886,215.04-215.04C469.465,135.483,373.366,39.385,254.425,39.385z"/>
<path style="fill:#FFFFFF;" d="M444.258,274.905v-40.172l-32.295-4.726c-1.575-11.028-4.726-21.268-8.665-31.508l25.206-20.48
	l-20.48-35.446l-30.72,11.815c-7.089-8.665-14.966-16.542-22.843-22.843l11.815-30.72l-35.446-20.48l-20.48,25.206
	c-10.24-3.938-20.48-7.089-31.508-8.665l-4.726-32.295h-40.172l-4.726,32.295c-11.028,1.575-21.268,4.726-31.508,8.665
	l-20.48-25.206l-35.446,20.48l11.815,30.72c-8.665,7.089-16.542,14.966-22.843,22.843l-30.72-11.815l-20.48,35.446l25.206,20.48
	c-3.938,10.24-7.089,20.48-8.665,31.508l-32.295,4.726v40.172l32.295,4.726c1.575,11.028,4.726,21.268,8.665,31.508l-25.206,20.48
	l20.48,35.446l30.72-11.815c7.089,8.665,14.966,16.542,22.843,22.843l-11.815,30.72l35.446,20.48l20.48-25.206
	c10.24,3.938,20.48,7.089,31.508,8.665l4.726,32.295h40.172l4.726-32.295c11.028-1.575,21.268-4.726,31.508-8.665l20.48,25.206
	l35.446-20.48l-11.815-30.72c8.665-7.089,16.542-14.966,22.843-22.843l30.72,11.815l20.48-35.446l-25.206-20.48
	c3.938-10.24,7.089-20.48,8.665-31.508L444.258,274.905z"/>
<g>
	<path style="fill:#183651;" d="M254.425,393.846c-1.575,0-3.151,0-3.938,0l0.788-15.754c4.726,0,10.24,0,14.966-0.788l1.575,15.754
		C263.089,393.846,258.363,393.846,254.425,393.846z M233.945,392.271c-5.514-0.788-11.028-2.363-16.542-3.151l3.938-14.966
		c4.726,1.575,9.452,2.363,14.178,3.151L233.945,392.271z M283.569,390.695l-3.151-15.754c4.726-0.788,9.452-2.363,14.178-3.938
		l4.726,14.966C293.809,388.332,289.083,389.908,283.569,390.695z M201.649,383.606c-5.514-2.363-10.24-4.726-14.966-7.089
		l7.877-13.391c3.938,2.363,8.665,4.726,13.391,6.302L201.649,383.606z M315.077,380.455l-7.089-14.178
		c4.726-2.363,8.665-4.726,12.603-7.089l8.665,13.391C324.529,374.942,319.803,378.092,315.077,380.455z M172.505,367.065
		c-4.726-3.151-8.665-7.089-12.603-10.24l11.028-11.815c3.938,3.151,7.089,6.302,11.815,9.452L172.505,367.065z M342.646,362.338
		l-10.24-11.815c3.938-3.151,7.089-6.302,11.028-10.24l11.028,11.028C351.311,355.249,347.372,358.4,342.646,362.338z
		 M148.086,344.222c-3.938-3.938-7.089-8.665-10.24-13.391l13.391-8.665c2.363,3.938,5.514,7.877,8.665,11.815L148.086,344.222z
		 M366.277,337.92l-12.603-9.452c3.151-3.938,5.514-7.877,7.877-12.603l13.391,7.877
		C372.578,329.255,369.428,333.982,366.277,337.92z M129.969,316.652c-2.363-4.726-4.726-10.24-6.302-14.966l14.966-5.514
		c1.575,4.726,3.938,9.452,5.514,13.391L129.969,316.652z M382.818,309.563l-14.178-6.302c1.575-4.726,3.938-9.452,4.726-14.178
		l14.966,4.726C386.757,299.323,385.182,304.049,382.818,309.563z M118.154,285.145c-1.575-5.514-2.363-11.028-2.363-16.542
		l15.754-1.575c0.788,4.726,1.575,10.24,2.363,14.966L118.154,285.145z M392.271,277.268l-15.754-2.363
		c0.788-4.726,1.575-9.452,1.575-14.966l15.754,0.788C393.846,266.24,393.058,271.754,392.271,277.268z M130.757,252.849h-15.754
		c0-5.514,0.788-11.028,1.575-16.542l15.754,2.363C131.545,242.609,130.757,247.335,130.757,252.849z M378.092,244.972
		c0-4.726-0.788-10.24-1.575-14.966l15.754-3.151c0.788,5.514,1.575,11.028,2.363,16.542L378.092,244.972z M134.695,222.917
		l-14.966-3.938c1.575-5.514,3.151-11.028,5.514-15.754l14.966,5.514C137.058,213.465,136.271,218.191,134.695,222.917z
		 M371.791,216.615c-1.575-4.726-3.151-9.452-5.514-14.178l14.178-6.302c2.363,4.726,4.726,10.24,6.302,15.754L371.791,216.615z
		 M145.723,196.135l-14.178-7.089c2.363-4.726,5.514-9.452,8.665-14.178l12.603,9.452
		C150.449,187.471,148.086,191.409,145.723,196.135z M359.975,189.834c-2.363-3.938-5.514-7.877-8.665-11.815l12.603-9.452
		c3.151,4.726,7.089,8.665,9.452,13.391L359.975,189.834z M162.265,171.717l-11.815-10.24c3.938-3.938,7.877-7.877,11.815-11.815
		l10.24,11.815C169.354,164.628,165.415,167.778,162.265,171.717z M341.071,166.203c-3.151-3.151-7.089-7.089-11.028-9.452
		l9.452-12.603c4.726,3.151,8.665,7.089,12.603,11.028L341.071,166.203z M185.108,152.025l-8.665-13.391
		c4.726-3.151,9.452-6.302,14.178-8.665l7.089,14.178C192.985,146.511,189.046,149.662,185.108,152.025z M318.228,148.086
		c-3.938-2.363-8.665-4.726-13.391-7.089l6.302-14.178c4.726,2.363,10.24,4.726,14.966,7.877L318.228,148.086z M211.102,138.634
		l-5.514-14.966c5.514-1.575,10.24-3.938,15.754-4.726l3.938,14.966C220.554,135.483,215.828,137.058,211.102,138.634z
		 M290.658,136.271c-4.726-1.575-9.452-2.363-14.178-3.151l3.151-15.754c5.514,0.788,11.028,2.363,16.542,3.938L290.658,136.271z
		 M239.458,131.545l-1.575-15.754c5.514-0.788,11.028-0.788,16.542-0.788l0,0c3.151,0,5.514,0,8.665,0l-0.788,15.754
		c-2.363,0-5.514,0-7.877,0C249.698,130.757,244.185,130.757,239.458,131.545z"/>
	<path style="fill:#183651;" d="M233.945,306.412c-3.938-1.575-6.302-6.302-4.726-10.24l34.658-88.222
		c1.575-3.938,6.302-6.302,10.24-4.726c3.938,1.575,6.302,6.302,4.726,10.24l-34.658,88.222
		C242.609,305.625,237.883,307.988,233.945,306.412z"/>
	<path style="fill:#183651;" d="M196.135,301.686l-44.898-40.96c-1.575-1.575-2.363-3.938-2.363-5.514
		c0-2.363,0.788-3.938,2.363-5.514l44.898-42.535c3.151-3.151,7.877-3.151,11.028,0c3.151,3.151,3.151,7.877,0,11.028
		l-38.597,37.022l38.597,35.446c3.151,3.151,3.151,7.877,0.788,11.028C204.8,304.837,199.286,304.837,196.135,301.686z"/>
	<path style="fill:#183651;" d="M301.686,301.686c-3.151-3.151-3.151-7.877,0-11.028l38.597-37.022l-38.597-35.446
		c-3.151-3.151-3.151-7.877-0.788-11.028c3.151-3.151,7.877-3.151,11.028-0.788l44.898,40.96c1.575,1.575,2.363,3.938,2.363,5.514
		c0,2.363-0.788,3.938-2.363,5.514l-44.898,42.535C309.563,304.837,304.049,304.837,301.686,301.686z"/>
</g>
<g>
</g>
<g>
</g>
<g>
</g>
<g>
</g>
<g>
</g>
<g>
</g>
<g>
</g>
<g>
</g>
<g>
</g>
<g>
</g>
<g>
</g>
<g>
</g>
<g>
</g>
<g>
</g>
<g>
</g>
</svg>
